<?xml version="1.0" encoding="UTF-8"?>
<svg xmlns="http://www.w3.org/2000/svg" version="1.1" viewBox="0 0 400 400">
  <!-- Generator: Adobe Illustrator 30.1.0, SVG Export Plug-In . SVG Version: 2.1.1 Build 136)  -->
  <defs>
    <style>
      .st0 {
        fill: #fff;
      }

      .st1 {
        fill: #f8be00;
      }

      .st2 {
        fill: #309f43;
      }
    </style>
  </defs>
  <rect class="st0" width="400" height="400"/>
  <g id="Layer_2">
    <g>
      <path class="st1" d="M188.71,279.77c7.92,2.22,15.73,3.39,23.84,3.65-5.37,2.95-10.89,4.95-16.59,6.53-14.05,3.65-28.44,3.61-42.44-.15-.44-.12-.99.13-1.26.51-2.13,2.99-4.35,5.62-6.89,8.01-8.65,8.1-19.71,13.52-30.04,16.3-1.93.52-3.74-.7-4.67-2.76s-.75-4.84.5-6.84c6.67-7.92,10.95-18.52,13.85-29.68-10.39-8.36-19.61-20.04-24.61-34.71-8.62-25.18-2.97-51.48,11.59-70.18,4.14-5.33,8.68-9.89,13.8-13.8-2.13,6.1-3.72,12.07-4.63,18.45-2.67,3.08-5.05,6.22-7.23,9.84-2.77,4.68-5.02,9.66-6.57,15.24-4.5,16.04-1.97,32.47,5.67,45.96,5.14,9.08,11.83,15.87,19.28,21.3,2.08,1.52,2.77,4.39,2.09,7.32-1.84,8-4.18,15.66-7.44,22.83l.06.42c6.78-3.59,13.24-8.01,18.33-14.97,2.4-3.7,5.95-5.51,9.63-4.73,11.09,3.01,22.37,3.55,33.74,1.45Z"/>
      <path class="st2" d="M241.56,269.79c12.67,7.21,40.74,2.86,36.84-.14-15.6-11.99-8.82-15.97-7.35-18.23,10.76-9.3,20.34-21.92,26.32-37.81,7.98-21.06,8.42-44.92,1.13-66.51-2.48-7.36-5.69-13.96-9.5-20.04-7.61-12.16-17.26-21.45-27.6-28.13-21.13-13.66-45.91-16.83-68.56-10.68-20.05,5.45-40.38,19.29-53.5,42.33-3.63,6.38-6.57,13.32-8.76,20.91-5.48,18.99-4.97,40.22,1.28,58.69,2.59,7.67,5.99,14.69,10.03,21,12.22,19.05,29.45,31.18,46.86,36.86,16.6,5.42,33.79,5.64,50.43.8.92-.27,1.36.36,2.36.93ZM224.8,222.84v12.95c0,1.14-.93,2.06-2.07,2.06h-15.08c-1.14,0-2.07-.92-2.07-2.06v-12.95c0-1.14-.93-2.06-2.07-2.06h-28.14c-1.58,0-2.58-1.69-1.81-3.06l5.73-10.23c.77-1.37-.23-3.06-1.81-3.06h-2.11c-1.58,0-2.58-1.69-1.81-3.06l10.68-19.06c.77-1.37-.23-3.06-1.81-3.06s-2.59-1.71-1.79-3.08l27.77-47.97c3.06-5.29,10.52-5.29,13.58,0l27.77,47.97c.79,1.37-.2,3.08-1.79,3.08s-2.58,1.69-1.81,3.06l10.68,19.06c.77,1.37-.23,3.06-1.81,3.06h-2.11c-1.58,0-2.58,1.69-1.81,3.06l5.73,10.23c.77,1.37-.23,3.06-1.81,3.06h-28.14c-1.14,0-2.07.92-2.07,2.06Z"/>
    </g>
  </g>
</svg>