<?xml version="1.0" encoding="UTF-8"?>
<svg xmlns="http://www.w3.org/2000/svg" version="1.1" viewBox="0 0 400 400">
  <!-- Generator: Adobe Illustrator 30.1.0, SVG Export Plug-In . SVG Version: 2.1.1 Build 136)  -->
  <defs>
    <style>
      .st0 {
        font-family: Arial-Black, 'Arial Black';
        font-size: 63.39px;
        font-weight: 800;
      }

      .st0, .st1 {
        fill: #309f43;
      }

      .st2 {
        fill: #fff;
      }

      .st3 {
        fill: #f8be00;
      }
    </style>
  </defs>
  <rect class="st2" width="400" height="400"/>
  <g id="Layer_2">
    <g>
      <text class="st0" transform="translate(163.93 220.27) scale(.98 1)"><tspan x="0" y="0">UTTY</tspan></text>
      <path class="st3" d="M96.06,243.88c4.36,1.22,8.65,1.87,13.11,2.01-2.95,1.62-5.99,2.72-9.13,3.59-7.73,2.01-15.64,1.99-23.35-.08-.24-.06-.54.07-.69.28-1.17,1.65-2.39,3.09-3.79,4.4-4.76,4.45-10.84,7.44-16.53,8.97-1.06.29-2.06-.39-2.57-1.52s-.41-2.66.27-3.76c3.67-4.36,6.02-10.19,7.62-16.32-5.72-4.6-10.79-11.02-13.54-19.09-4.74-13.85-1.63-28.32,6.38-38.6,2.28-2.93,4.77-5.44,7.59-7.59-1.17,3.35-2.04,6.64-2.55,10.15-1.47,1.69-2.78,3.42-3.98,5.41-1.53,2.57-2.76,5.31-3.61,8.38-2.48,8.82-1.08,17.86,3.12,25.28,2.83,5,6.51,8.73,10.61,11.72,1.14.83,1.52,2.42,1.15,4.03-1.01,4.4-2.3,8.61-4.1,12.56l.03.23c3.73-1.98,7.28-4.41,10.09-8.23,1.32-2.04,3.27-3.03,5.3-2.6,6.1,1.66,12.3,1.95,18.56.8Z"/>
      <path class="st1" d="M125.13,238.39c6.97,3.96,22.41,1.57,20.26-.08-8.58-6.59-4.85-8.79-4.04-10.03,5.92-5.11,11.19-12.06,14.48-20.8,4.39-11.58,4.63-24.71.62-36.58-1.37-4.05-3.13-7.68-5.22-11.02-4.19-6.69-9.5-11.8-15.18-15.47-11.62-7.51-25.25-9.26-37.71-5.87-11.03,3-22.21,10.61-29.43,23.28-2,3.51-3.61,7.33-4.82,11.5-3.01,10.44-2.73,22.12.71,32.28,1.43,4.22,3.29,8.08,5.52,11.55,6.72,10.48,16.2,17.15,25.77,20.28,9.13,2.98,18.59,3.1,27.74.44.5-.15.75.2,1.3.51ZM115.91,212.56v7.12c0,.63-.51,1.13-1.14,1.13h-8.29c-.63,0-1.14-.51-1.14-1.13v-7.12c0-.63-.51-1.13-1.14-1.13h-15.48c-.87,0-1.42-.93-1-1.68l3.15-5.63c.42-.75-.13-1.68-1-1.68h-1.16c-.87,0-1.42-.93-1-1.68l5.87-10.49c.42-.75-.13-1.68-1-1.68s-1.42-.94-.99-1.7l15.28-26.39c1.68-2.91,5.78-2.91,7.47,0l15.28,26.39c.44.75-.11,1.7-.99,1.7s-1.42.93-1,1.68l5.87,10.49c.42.75-.13,1.68-1,1.68h-1.16c-.87,0-1.42.93-1,1.68l3.15,5.63c.42.75-.13,1.68-1,1.68h-15.48c-.63,0-1.14.51-1.14,1.13Z"/>
    </g>
  </g>
</svg>